# xmcd
#
# Track frame offsets:
#	150
#	13597
#	27802
#	41507
#	59497
#	69745
#	85265
#	97472
#	116502
#	127900
#
# Disc length: 1908 seconds
# Revision: 4
# Processed by: cddbd v1.5.2PL0 Copyright (c) Steve Scherf et al.
# Submitted via: dBpowerAMP V12.0
#
DISCID=8507720a
DTITLE=Various Artist - Dillard's Country Christmas Collection 1999
DYEAR=1999
DGENRE=Christmas
TTITLE0=Steve Wariner - The Most Wonderful Time of the Year
TTITLE1=Lorrie Morgan - Sleigh Ride
TTITLE2=Suzy Boggus - I'll Be Home for Christmas
TTITLE3=Diamond Rio - Christmas Spirit
TTITLE4=Little Texas - Here Comes Santa Claus
TTITLE5=Deana Carter - Carol of the Bells
TTITLE6=Randy Travis - Meet Me Under the Mistletoe
TTITLE7=Sawyer Brown - Where Christmas Goes
TTITLE8=Shenandoah - Winter Wonderland
TTITLE9=Trace Adkins - The Christmas Song
EXTD=
EXTT0=
EXTT1=
EXTT2=
EXTT3=
EXTT4=
EXTT5=
EXTT6=
EXTT7=
EXTT8=
EXTT9=
PLAYORDER=
